<?xml version="1.0" standalone="no"?><svg xmlns="http://www.w3.org/2000/svg" viewBox="0 0 1440 320"><path fill="#2b2d42" fill-opacity="1" d="M0,192L34.3,170.7C68.6,149,137,107,206,106.7C274.3,107,343,149,411,186.7C480,224,549,256,617,229.3C685.7,203,754,117,823,85.3C891.4,53,960,75,1029,112C1097.1,149,1166,203,1234,218.7C1302.9,235,1371,213,1406,202.7L1440,192L1440,320L1405.7,320C1371.4,320,1303,320,1234,320C1165.7,320,1097,320,1029,320C960,320,891,320,823,320C754.3,320,686,320,617,320C548.6,320,480,320,411,320C342.9,320,274,320,206,320C137.1,320,69,320,34,320L0,320Z"></path></svg>